<svg width="22" height="22" viewBox="0 0 22 22" fill="none" xmlns="http://www.w3.org/2000/svg">
<path d="M20.8622 2.7397C21.2891 4.12043 20.6904 5.06576 19.5315 5.99693C18.5965 6.74825 17.4052 7.56219 16.1429 8.95373C14.9054 10.3179 13.6978 11.9609 12.6246 13.5781C11.5557 15.1887 10.6472 16.7325 10.0053 17.8756C9.59053 18.6143 9.01164 19.7161 9.01164 19.7161C8.60341 20.5234 7.86949 21.012 7.08254 20.9998C6.29542 20.9875 5.57244 20.4765 5.18189 19.6564C4.18354 17.5601 3.41315 16.7322 3.05907 16.4348C2.11166 15.639 1 15.5213 1 13.6669C1 12.1942 1.99497 11.0004 3.22233 11.0004C4.08886 11.0403 4.89429 11.4663 5.60792 12.0657C6.06409 12.4489 6.54732 12.9556 7.04996 13.6227C7.63987 12.617 8.35074 11.4567 9.14762 10.2559C10.3049 8.51208 11.6709 6.64137 13.1358 5.02645C14.5759 3.43893 16.2408 1.95293 18.0056 1.16726C19.1563 0.654965 20.4352 1.35897 20.8622 2.7397Z" stroke="#141B34" stroke-width="1.5" stroke-linecap="round" stroke-linejoin="round"/>
</svg>
