<svg width="42" height="42" viewBox="0 0 42 42" fill="none" xmlns="http://www.w3.org/2000/svg">
<path d="M1.70278 23.4269C0.996742 18.8325 0.643722 16.5353 1.51233 14.4988C2.38094 12.4622 4.30805 11.0689 8.16228 8.28212L11.042 6.2C15.8366 2.73333 18.2339 1 21 1C23.7661 1 26.1634 2.73333 30.958 6.2L33.8377 8.28212C37.6919 11.0689 39.6191 12.4622 40.4877 14.4988C41.3563 16.5353 41.0033 18.8325 40.2972 23.4269L39.6951 27.3448C38.6943 33.8578 38.1938 37.1144 35.858 39.0572C33.5222 41 30.1073 41 23.2776 41H18.7224C11.8927 41 8.47782 41 6.142 39.0572C3.80618 37.1144 3.30574 33.8578 2.30485 27.3448L1.70278 23.4269Z" stroke="#141B34" stroke-width="1.5" stroke-linejoin="round"/>
<path d="M21 17V29M15 23L27 23" stroke="#141B34" stroke-width="1.5" stroke-linecap="round"/>
</svg>
