<svg width="42" height="42" viewBox="0 0 42 42" fill="none" xmlns="http://www.w3.org/2000/svg">
<path d="M21 1C15.8176 1 8.20617 2.1344 6.725 6.78372C5.41426 10.8981 5.71906 13.8396 8.98401 17.3334L28.2188 37.9165C30.1539 39.9873 31.1214 41.0226 32.4318 40.9996C33.7423 40.9766 34.6498 39.9083 36.4649 37.7717L37.7867 36.2159C40.0558 33.5449 41.1904 32.2093 40.9739 30.766C40.7573 29.3226 39.2584 28.2304 36.2607 26.046L7.99779 5" stroke="#141B34" stroke-width="1.5"/>
<path d="M21 1C26.1824 1 33.7938 2.1344 35.275 6.78372C36.5857 10.8981 36.2809 13.8396 33.016 17.3334L29.5896 21M34.0022 5L21 14.6821M21 30.1917L13.7812 37.9165C11.8461 39.9873 10.8786 41.0226 9.56815 40.9996C8.25772 40.9766 7.35017 39.9083 5.53505 37.7717L4.21331 36.2159C1.94421 33.5449 0.809573 32.2093 1.02615 30.766C1.24272 29.3226 2.74158 28.2304 5.73928 26.046L12.5156 21" stroke="#141B34" stroke-width="1.5"/>
</svg>
