<svg width="90" height="90" viewBox="0 0 90 90" fill="none" xmlns="http://www.w3.org/2000/svg">
<rect width="90" height="90" rx="45" fill="white"/>
<path d="M47.6704 21C50.6142 21 53.0007 23.235 53.0007 25.9921C53.0007 28.2699 53.0966 30.297 51.0512 31.9727C44.3564 37.4575 41.0091 40.1999 37.0007 40.1999C32.9924 40.1999 29.645 37.4575 22.9502 31.9727C20.9047 30.2968 21.0007 28.2696 21.0007 25.9915C21.0007 23.2348 23.3869 21 26.3305 21" stroke="#141B34" stroke-width="1.5" stroke-linecap="round" stroke-linejoin="round"/>
<path d="M37 49.7999V58.1993C37 64.1644 42.373 69.0001 49.0009 69.0001C55.6288 69.0001 61.0018 64.1644 61.0018 58.1993V54.5999" stroke="#141B34" stroke-width="1.5" stroke-linecap="round" stroke-linejoin="round"/>
<path d="M50.3333 33L46.8607 40.8133C45.9376 42.8903 45.4761 43.9288 44.7031 44.7821C43.9302 45.6354 42.8929 46.2515 40.8184 47.4837L36.9189 49.7999L33.0876 47.4776C31.0592 46.2481 30.045 45.6334 29.2886 44.7902C28.5321 43.9471 28.078 42.9254 27.1697 40.8819L23.6667 33" stroke="#141B34" stroke-width="1.5" stroke-linecap="round" stroke-linejoin="round"/>
<path d="M69 47.3999C69 51.3764 65.4183 54.5999 61 54.5999C56.5817 54.5999 53 51.3764 53 47.3999C53 43.4235 56.5817 40.2 61 40.2C65.4183 40.2 69 43.4235 69 47.3999Z" stroke="#141B34" stroke-width="1.5"/>
<path d="M61.0213 47.3999L60.9974 47.3999" stroke="#141B34" stroke-width="2" stroke-linecap="round" stroke-linejoin="round"/>
</svg>
