<svg width="90" height="90" viewBox="0 0 90 90" fill="none" xmlns="http://www.w3.org/2000/svg">
<rect width="90" height="90" rx="45" fill="white"/>
<path d="M26.3333 68.9875V60.4682C26.3333 57.4168 25.5342 55.8307 23.9636 53.1788C22.0807 49.9999 21 46.29 21 42.3278C21 30.5488 30.5513 21 42.3333 21C54.1154 21 63.6667 30.5488 63.6667 42.3278C63.6667 43.7192 63.6667 44.4149 63.7247 44.8049C63.8634 45.7373 64.2986 46.5394 64.7266 47.3695L69 55.6577L65.6415 57.3365C64.6681 57.8231 64.1814 58.0663 63.8424 58.5153C63.5034 58.9643 63.4079 59.4711 63.2169 60.4847L63.1983 60.5833C62.761 62.9055 62.2782 65.4687 60.919 67.0858C60.4391 67.6568 59.8447 68.1207 59.1742 68.4477C58.0674 68.9875 56.7065 68.9875 53.9848 68.9875C52.7255 68.9875 51.4627 69.0166 50.2037 68.986C47.2193 68.9134 45 66.4041 45 63.4906" stroke="#141B34" stroke-width="1.5" stroke-linecap="round" stroke-linejoin="round"/>
<path d="M50.7313 41.4757C49.7082 41.4757 48.7749 41.0885 48.0681 40.4516M50.7313 41.4757C50.7313 44.2259 49.138 46.8378 46.0708 46.8378C43.0036 46.8378 41.4102 49.4498 41.4102 52.2M50.7313 41.4757C55.8896 41.4757 55.8896 33.4324 50.7313 33.4324C50.2626 33.4324 49.8127 33.5137 49.3949 33.663C49.6468 27.6677 41.0038 26.04 39.0462 31.6564M41.4102 36.1135C41.4102 34.2558 40.4718 32.6187 39.0462 31.6564M39.0462 31.6564C34.6018 28.6568 28.6772 34.0395 31.4958 38.8387C26.7654 39.5479 27.2712 46.8378 32.0892 46.8378C33.4403 46.8378 34.6347 46.1626 35.3576 45.1291" stroke="#141B34" stroke-width="1.5" stroke-linecap="round" stroke-linejoin="round"/>
</svg>
