<svg width="90" height="90" viewBox="0 0 90 90" fill="none" xmlns="http://www.w3.org/2000/svg">
<rect width="90" height="90" rx="45" fill="white"/>
<path d="M37 29C38.3333 30.3333 41.0089 30.0994 45 26.8035M45 26.8035C44.4097 26.316 43.7963 25.7622 43.1625 25.1342C37.0141 19.0416 28.6405 20.2345 24.7173 25.1342C22.0076 28.5184 15.0734 36.9429 32.0457 66.9721C32.7484 68.2154 34.1483 69 35.656 69C38.0613 69 39.9412 67.0802 40.0194 64.8397C40.1853 60.0879 41.106 54.6093 45 54.6093C48.894 54.6093 49.8147 60.0879 49.9806 64.8397C50.0588 67.0802 51.9387 69 54.344 69C55.8517 69 57.2516 68.2154 57.9543 66.9721C74.9266 36.9429 67.9924 28.5184 65.2827 25.1342C61.3595 20.2345 52.9859 19.0416 46.8375 25.1342C46.2037 25.7622 45.5903 26.316 45 26.8035Z" stroke="#141B34" stroke-width="1.5" stroke-linecap="round" stroke-linejoin="round"/>
</svg>
