<svg width="90" height="90" viewBox="0 0 90 90" fill="none" xmlns="http://www.w3.org/2000/svg">
<rect width="90" height="90" rx="45" fill="white"/>
<path d="M62.9101 23.6494C56.4742 19.2629 50.8569 21.0306 47.4824 23.8464C46.0988 25.0009 45.407 25.5781 45 25.5781C44.593 25.5781 43.9012 25.0009 42.5176 23.8464C39.1431 21.0306 33.5258 19.2629 27.0898 23.6494C18.6434 29.4061 16.7321 48.3979 36.2149 64.4206C39.9257 67.4724 41.7811 68.9983 45 68.9983C48.2188 68.9983 50.0743 67.4724 53.7851 64.4206C73.2679 48.3979 71.3566 29.4061 62.9101 23.6494Z" stroke="#141B34" stroke-width="1.5" stroke-linecap="round"/>
<path d="M54.6 47.6667L52.2 47.6667C51.1074 47.6667 49.9573 47.7607 48.9764 46.9236C48.6026 46.6046 48.3545 46.1636 47.8584 45.2815L43.8 37L36.6 50.3333L32.8641 44.5521C32.2493 43.7324 31.6499 42.9014 30.8363 42.5725C30.2445 42.3333 29.563 42.3333 28.2 42.3333H23.4" stroke="#141B34" stroke-width="1.5" stroke-linecap="round" stroke-linejoin="round"/>
</svg>
