<svg width="90" height="90" viewBox="0 0 90 90" fill="none" xmlns="http://www.w3.org/2000/svg">
<rect width="90" height="90" rx="45" fill="white"/>
<path d="M21 34.3333C21 34.3333 31.7452 21 45 21C58.2548 21 69 34.3333 69 34.3333" stroke="#141B34" stroke-width="1.5" stroke-linecap="round"/>
<path d="M67.9055 47.7866C68.6352 48.9234 69 49.4919 69 50.3333C69 51.1747 68.6352 51.7431 67.9055 52.88C64.627 57.9881 56.2541 69 45 69C33.7459 69 25.373 57.9881 22.0945 52.88C21.3648 51.7431 21 51.1747 21 50.3333C21 49.4919 21.3648 48.9234 22.0945 47.7866C25.373 42.6785 33.7459 31.6666 45 31.6666C56.2541 31.6666 64.627 42.6785 67.9055 47.7866Z" stroke="#141B34" stroke-width="1.5"/>
<path d="M52.2 50.3334C52.2 45.9151 48.9765 42.3334 45 42.3334C41.0235 42.3334 37.8 45.9151 37.8 50.3334C37.8 54.7517 41.0235 58.3334 45 58.3334C48.9765 58.3334 52.2 54.7517 52.2 50.3334Z" stroke="#141B34" stroke-width="1.5"/>
</svg>
