<svg width="90" height="90" viewBox="0 0 90 90" fill="none" xmlns="http://www.w3.org/2000/svg">
<rect width="90" height="90" rx="45" fill="white"/>
<path d="M40.1654 29C40.5428 25.2505 37.8108 21 31.9712 21C25.912 21 21 27.5665 21 35.6667C21 43.7668 24.6933 50.3333 30.7525 50.3333C34.6319 50.3333 36.6852 46.9892 36.2539 44.0905" stroke="#141B34" stroke-width="1.5" stroke-linecap="round"/>
<path d="M33 34.3334C36.6001 34.3323 41.3999 35.6552 41.3999 44.04C41.3999 55.1334 36.5986 59.2934 40.2011 69M57 34.3334C53.3999 34.3323 48.6001 35.6552 48.6001 44.04C48.6001 55.1334 53.4014 59.2934 49.7989 69" stroke="#141B34" stroke-width="1.5" stroke-linecap="round"/>
<path d="M32.0648 29C32.5538 30.5238 33.3849 34.181 32.7982 36.619C32.5538 37.6349 31.7719 39.6667 30.6 39.6667" stroke="#141B34" stroke-width="1.5" stroke-linecap="round"/>
<path d="M49.8346 29C49.4572 25.2505 52.1892 21 58.0288 21C64.088 21 69 27.5665 69 35.6667C69 43.7668 65.3067 50.3333 59.2475 50.3333C55.1774 50.3333 53.1173 46.6523 53.8278 43.6667" stroke="#141B34" stroke-width="1.5" stroke-linecap="round"/>
<path d="M57.9352 29C57.4462 30.5238 56.6151 34.181 57.2018 36.619C57.4462 37.6349 58.2281 39.6667 59.4 39.6667" stroke="#141B34" stroke-width="1.5" stroke-linecap="round"/>
</svg>
