<svg width="40" height="40" viewBox="0 0 40 40" fill="none" xmlns="http://www.w3.org/2000/svg">
<path d="M34.6233 30C35.8721 30 36.8654 29.2141 37.7573 28.1152C39.583 25.8657 36.5854 24.0681 35.4421 23.1877C34.2799 22.2927 32.9822 21.7857 31.6665 21.6667M29.9998 18.3333C32.301 18.3333 34.1665 16.4679 34.1665 14.1667C34.1665 11.8655 32.301 10 29.9998 10" stroke="#141B34" stroke-width="1.5" stroke-linecap="round"/>
<path d="M5.37648 30C4.12764 30 3.13433 29.2141 2.24246 28.1152C0.416697 25.8657 3.41433 24.0681 4.55763 23.1877C5.71984 22.2927 7.01752 21.7857 8.33322 21.6667M9.16655 18.3333C6.86536 18.3333 4.99988 16.4679 4.99988 14.1667C4.99988 11.8655 6.86536 10 9.16655 10" stroke="#141B34" stroke-width="1.5" stroke-linecap="round"/>
<path d="M13.4728 25.1853C11.7699 26.2383 7.3048 28.3885 10.0243 31.079C11.3528 32.3933 12.8324 33.3333 14.6925 33.3333H25.3071C27.1673 33.3333 28.6469 32.3933 29.9753 31.079C32.6948 28.3885 28.2298 26.2383 26.5268 25.1853C22.5334 22.716 17.4663 22.716 13.4728 25.1853Z" stroke="#141B34" stroke-width="1.5" stroke-linecap="round" stroke-linejoin="round"/>
<path d="M25.8332 12.5C25.8332 15.7217 23.2215 18.3333 19.9998 18.3333C16.7782 18.3333 14.1665 15.7217 14.1665 12.5C14.1665 9.27834 16.7782 6.66666 19.9998 6.66666C23.2215 6.66666 25.8332 9.27834 25.8332 12.5Z" stroke="#141B34" stroke-width="1.5"/>
</svg>
