<svg width="40" height="40" viewBox="0 0 40 40" fill="none" xmlns="http://www.w3.org/2000/svg">
<path d="M10.9626 25.8027C8.60467 27.2067 2.42227 30.0735 6.18777 33.661C8.02718 35.4134 10.0758 36.6667 12.6514 36.6667H27.3486C29.9242 36.6667 31.9728 35.4134 33.8122 33.661C37.5777 30.0735 31.3953 27.2067 29.0374 25.8026C23.508 22.5102 16.492 22.5102 10.9626 25.8027Z" stroke="#141B34" stroke-width="1.5" stroke-linecap="round" stroke-linejoin="round"/>
<path d="M27.5 10.8333C27.5 14.9755 24.1421 18.3333 20 18.3333C15.8579 18.3333 12.5 14.9755 12.5 10.8333C12.5 6.6912 15.8579 3.33334 20 3.33334C24.1421 3.33334 27.5 6.6912 27.5 10.8333Z" stroke="#141B34" stroke-width="1.5"/>
</svg>
